<svg width="18" height="20" viewBox="0 0 18 22" fill="none" xmlns="http://www.w3.org/2000/svg">
  <path d="M17.4128 5.51473L12.1289 0.230804C11.9816 0.0834822 11.7827 0 11.574 0H1.14362C0.709026 0 0.35791 0.351116 0.35791 0.785714V21.2143C0.35791 21.6489 0.709026 22 1.14362 22H16.8579C17.2925 22 17.6436 21.6489 17.6436 21.2143V6.0721C17.6436 5.86339 17.5601 5.66205 17.4128 5.51473ZM15.8316 6.43304H11.2106V1.81205L15.8316 6.43304ZM15.8758 20.2321H2.12577V1.76786H9.54095V7.07143C9.54095 7.34493 9.6496 7.60724 9.84299 7.80063C10.0364 7.99403 10.2987 8.10268 10.5722 8.10268H15.8758V20.2321Z" fill="#262626"/>
</svg>
