<svg width="318" height="318" viewBox="0 0 318 318" fill="none" xmlns="http://www.w3.org/2000/svg">
<path d="M106.7 171.7C108.6 169.5 111.3 168.1 114.5 168.1C117.6 168.1 120.3 169.4 122.2 171.6C123.1 173.1 124.3 174.4 125.7 175.5C128.4 177.7 131.8 179 135.5 179C139.8 179 143.7 177.2 146.6 174.4C149.4 171.6 151.1 167.7 151.1 163.4C151.1 154.8 144.1 147.8 135.5 147.8C129.9 147.8 125 150.8 122.3 155.2C122.1 155.4 122 155.6 121.8 155.7C120 157.5 117.4 158.7 114.6 158.7C112.2 158.7 110 157.9 108.2 156.5C107.8 156.1 107.4 155.8 107 155.3C104.3 150.8 99.2996 147.8 93.6996 147.8C85.0996 147.8 78.0996 154.8 78.0996 163.4C78.0996 168.3 80.3996 172.7 83.8996 175.5C86.5996 177.7 89.9996 179 93.6996 179C97.9996 179 101.9 177.2 104.8 174.4C105.4 173.5 106.1 172.6 106.7 171.7Z" fill="#0066B2"/>
<path d="M188.1 176.2L188 176.1C185 174.4 183.2 171.1 183.2 167.4C183.2 163.9 185 160.8 187.8 159C189.5 157.7 191 156.1 192.2 154.1C194.6 149.8 194.8 144.9 193.2 140.7C192 137.5 189.6 134.7 186.4 132.8C182.6 130.7 178.4 130.2 174.5 131.3C173.4 131.6 172.4 132 171.4 132.5C168.7 133.5 165.6 133.3 162.8 131.8C160.1 130.3 158.4 127.8 157.9 125C157.8 123.2 157.5 121.5 156.8 119.9C155.6 116.7 153.2 113.9 150 112C146.2 109.9 142 109.4 138.1 110.5C134.3 111.6 130.8 114.1 128.7 117.8C124.4 125.3 127 134.8 134.5 139.1C139.4 141.9 145.1 141.7 149.6 139.3C149.8 139.2 150 139.1 150.3 139.1C152.8 138.4 155.6 138.7 158 140.1C160.1 141.3 161.6 143.1 162.4 145.2C162.6 145.7 162.8 146.3 162.9 146.8C163 151.5 165.2 156 169.1 158.9C169.3 159.1 170.1 159.8 170.6 160.3C172.4 162.1 173.6 164.6 173.6 167.4C173.6 169.8 172.8 172 171.4 173.7C170.9 174.3 170.3 174.9 169.7 175.3C169.4 175.5 169.2 175.6 169 175.8C168.9 175.9 168.6 176.1 168.6 176.1C166 178.2 164.1 181 163.3 184.1C163 185.2 162.8 186.3 162.8 187.4C162.3 190.2 160.5 192.8 157.8 194.4C155.1 195.9 152.1 196.1 149.4 195.1C147.9 194.2 146.2 193.7 144.4 193.4C141 192.8 137.4 193.4 134.2 195.2C130.4 197.3 127.9 200.8 126.8 204.6C125.7 208.4 126.1 212.7 128.2 216.4C132.4 223.9 141.9 226.6 149.4 222.3C154.3 219.6 157.1 214.6 157.3 209.4C157.3 209.2 157.4 208.9 157.5 208.7C158.2 206.2 159.9 204 162.3 202.6C164.4 201.4 166.7 201.1 168.9 201.4C169.5 201.5 170 201.6 170.5 201.8C175.1 204.4 180.9 204.6 185.8 201.8C193.3 197.6 196 188.1 191.7 180.6C190.9 178.9 189.6 177.4 188.1 176.2Z" fill="#0066B2"/>
<path d="M263.1 62.4001L168 7.5001C153 -1.1999 134.5 -1.1999 119.5 7.5001L24.3 62.4001C9.3 71.1001 0 87.1001 0 104.5V115.6V121.7V172.3L71.7 115.6H36.9V97.7001L119.6 50.0001C134.5 41.4001 152.9 41.4001 167.8 50.0001L250.5 97.8001V144.7L287.4 115.5V104.4C287.4 87.1001 278.1 71.1001 263.1 62.4001Z" fill="url(#paint0_linear_527_74)"/>
<path d="M215.7 185.3H250.5V193.3C250.5 210.5 241.3 226.4 226.4 235L143.7 282.8L61 235C46.1 226.4 36.9 210.5 36.9 193.3V160.7L0 189.8V214.3C0 231.6 9.3 247.7 24.3 256.3L119.5 311.2C134.5 319.9 153 319.9 168 311.2L263.2 256.3C278.2 247.6 287.5 231.6 287.5 214.3V185.2V183.7V128.5L215.7 185.3Z" fill="url(#paint1_linear_527_74)"/>
<defs>
<linearGradient id="paint0_linear_527_74" x1="0" y1="86.6027" x2="287.387" y2="86.6027" gradientUnits="userSpaceOnUse">
<stop offset="0.0519075" stop-color="#0066B2"/>
<stop offset="0.9506" stop-color="#0080C6"/>
</linearGradient>
<linearGradient id="paint1_linear_527_74" x1="0" y1="223.221" x2="287.387" y2="223.221" gradientUnits="userSpaceOnUse">
<stop offset="0.0519075" stop-color="#F16623"/>
<stop offset="0.9506" stop-color="#F89C2A"/>
</linearGradient>
</defs>
</svg>
