<svg width="1035" height="318" viewBox="0 0 1035 318" fill="none" xmlns="http://www.w3.org/2000/svg">
<path d="M106.7 171.7C108.6 169.5 111.3 168.1 114.5 168.1C117.6 168.1 120.3 169.4 122.2 171.6C123.1 173.1 124.3 174.4 125.7 175.5C128.4 177.7 131.8 179 135.5 179C139.8 179 143.7 177.2 146.6 174.4C149.4 171.6 151.1 167.7 151.1 163.4C151.1 154.8 144.1 147.8 135.5 147.8C129.9 147.8 125 150.8 122.3 155.2C122.1 155.4 122 155.6 121.8 155.7C120 157.5 117.4 158.7 114.6 158.7C112.2 158.7 110 157.9 108.2 156.5C107.8 156.1 107.4 155.8 107 155.3C104.3 150.8 99.2996 147.8 93.6996 147.8C85.0996 147.8 78.0996 154.8 78.0996 163.4C78.0996 168.3 80.3996 172.7 83.8996 175.5C86.5996 177.7 89.9996 179 93.6996 179C97.9996 179 101.9 177.2 104.8 174.4C105.4 173.5 106.1 172.6 106.7 171.7Z" fill="#0066B2"/>
<path d="M188.1 176.2L188 176.1C185 174.4 183.2 171.1 183.2 167.4C183.2 163.9 185 160.8 187.8 159C189.5 157.7 191 156.1 192.2 154.1C194.6 149.8 194.8 144.9 193.2 140.7C192 137.5 189.6 134.7 186.4 132.8C182.6 130.7 178.4 130.2 174.5 131.3C173.4 131.6 172.4 132 171.4 132.5C168.7 133.5 165.6 133.3 162.8 131.8C160.1 130.3 158.4 127.8 157.9 125C157.8 123.2 157.5 121.5 156.8 119.9C155.6 116.7 153.2 113.9 150 112C146.2 109.9 142 109.4 138.1 110.5C134.3 111.6 130.8 114.1 128.7 117.8C124.4 125.3 127 134.8 134.5 139.1C139.4 141.9 145.1 141.7 149.6 139.3C149.8 139.2 150 139.1 150.3 139.1C152.8 138.4 155.6 138.7 158 140.1C160.1 141.3 161.6 143.1 162.4 145.2C162.6 145.7 162.8 146.3 162.9 146.8C163 151.5 165.2 156 169.1 158.9C169.3 159.1 170.1 159.8 170.6 160.3C172.4 162.1 173.6 164.6 173.6 167.4C173.6 169.8 172.8 172 171.4 173.7C170.9 174.3 170.3 174.9 169.7 175.3C169.4 175.5 169.2 175.6 169 175.8C168.9 175.9 168.6 176.1 168.6 176.1C166 178.2 164.1 181 163.3 184.1C163 185.2 162.8 186.3 162.8 187.4C162.3 190.2 160.5 192.8 157.8 194.4C155.1 195.9 152.1 196.1 149.4 195.1C147.9 194.2 146.2 193.7 144.4 193.4C141 192.8 137.4 193.4 134.2 195.2C130.4 197.3 127.9 200.8 126.8 204.6C125.7 208.4 126.1 212.7 128.2 216.4C132.4 223.9 141.9 226.6 149.4 222.3C154.3 219.6 157.1 214.6 157.3 209.4C157.3 209.2 157.4 208.9 157.5 208.7C158.2 206.2 159.9 204 162.3 202.6C164.4 201.4 166.7 201.1 168.9 201.4C169.5 201.5 170 201.6 170.5 201.8C175.1 204.4 180.9 204.6 185.8 201.8C193.3 197.6 196 188.1 191.7 180.6C190.9 178.9 189.6 177.4 188.1 176.2Z" fill="#0066B2"/>
<path d="M263.1 62.4001L168 7.5001C153 -1.1999 134.5 -1.1999 119.5 7.5001L24.3 62.4001C9.3 71.1001 0 87.1001 0 104.5V115.6V121.7V172.3L71.7 115.6H36.9V97.7001L119.6 50.0001C134.5 41.4001 152.9 41.4001 167.8 50.0001L250.5 97.8001V144.7L287.4 115.5V104.4C287.4 87.1001 278.1 71.1001 263.1 62.4001Z" fill="url(#paint0_linear_527_74)"/>
<path d="M215.7 185.3H250.5V193.3C250.5 210.5 241.3 226.4 226.4 235L143.7 282.8L61 235C46.1 226.4 36.9 210.5 36.9 193.3V160.7L0 189.8V214.3C0 231.6 9.3 247.7 24.3 256.3L119.5 311.2C134.5 319.9 153 319.9 168 311.2L263.2 256.3C278.2 247.6 287.5 231.6 287.5 214.3V185.2V183.7V128.5L215.7 185.3Z" fill="url(#paint1_linear_527_74)"/>
<path fill-rule="evenodd" clip-rule="evenodd" d="M408.8 180.2V180.3L409.5 183.7H409.9L410.6 180.5V180.4L430.9 111.1C431.1 110.5 431.7 110 432.4 110H454.2C455.3 110 456 111.1 455.7 112.1L423.2 205.4C423 206 422.4 206.4 421.7 206.4H397.9C397.2 206.4 396.6 206 396.4 205.4L364.1 112.1C363.7 111.1 364.5 110 365.6 110H387.4C388.1 110 388.7 110.5 388.9 111.1L408.8 180.2ZM549.5 206.4H528C527.5 206.4 527 206.1 526.7 205.7L489.2 145.8L488.8 145.9V204.9C488.8 205.8 488.1 206.5 487.2 206.5H466.3C465.4 206.5 464.7 205.8 464.7 204.9V111.6C464.7 110.7 465.4 110 466.3 110H487.9C488.4 110 488.9 110.3 489.2 110.7L526.7 170.6L527.1 170.5V111.6C527.1 110.7 527.8 110 528.7 110H549.6C550.5 110 551.2 110.7 551.2 111.6V204.9C551.1 205.7 550.4 206.4 549.5 206.4ZM591.7 205.3V174.5C591.7 173.9 592.2 173.4 592.9 173.3H607.3C619.6 173.3 629.4 170.4 636.6 164.6C643.8 158.8 647.4 151.2 647.4 141.7C647.4 132.2 643.8 124.5 636.6 118.7C629.3 112.9 619.6 110 607.3 110H568.8C568.2 110 567.7 110.5 567.7 111.1V205.3C567.7 205.9 568.2 206.4 568.8 206.4H590.6C591.2 206.4 591.7 205.9 591.7 205.3ZM592.8 156.1C592.2 156.1 591.7 155.6 591.7 155V128.3C591.7 127.7 592.2 127.2 592.8 127.2H607.2C612.5 127.2 616.5 128.6 619.2 131.3C621.9 134 623.3 137.5 623.3 141.8C623.3 146 622 149.4 619.2 152.1C616.4 154.8 612.4 156.1 607.2 156.1H592.8ZM731.1 127.2H706.8C705.9 127.2 705.2 127.9 705.2 128.8V204.9C705.2 205.8 704.5 206.5 703.6 206.5H682.7C681.8 206.5 681.1 205.8 681.1 204.9V128.8C681.1 127.9 680.4 127.2 679.5 127.2H655.7C654.8 127.2 654.1 126.5 654.1 125.6V111.6C654.1 110.7 654.8 110 655.7 110H731C731.9 110 732.6 110.7 732.6 111.6V125.7C732.7 126.5 732 127.2 731.1 127.2ZM778.7 111.6V204.8C778.7 205.7 779.4 206.4 780.3 206.4H816.7C828.9 206.4 839.1 202.7 847.3 195.3C855.5 187.9 859.6 178.4 859.6 166.8V149.5C859.6 138 855.5 128.5 847.3 121.1C839.1 113.7 828.9 110 816.7 110H780.3C779.4 110 778.7 110.7 778.7 111.6ZM802.8 188.1V128.4C802.8 127.7 803.3 127.2 803.9 127.2H815.4C823.2 127.2 830.5 131.7 833.5 138.9C834.8 142 835.4 145.5 835.4 149.4V166.9C835.4 170.9 834.8 174.4 833.5 177.5C830.5 184.7 823.2 189.2 815.4 189.2H803.9C803.3 189.2 802.8 188.7 802.8 188.1ZM933 165.2H899.6C898.7 165.2 898 165.9 898 166.8V187.7C898 188.6 898.7 189.3 899.6 189.3H940.3C941.2 189.3 941.9 190 941.9 190.9V205C941.9 205.9 941.2 206.6 940.3 206.6H875.6C874.7 206.6 874 205.9 874 205V111.6C874 110.7 874.7 110 875.6 110H940.4C941.3 110 942 110.7 942 111.6V125.7C942 126.6 941.3 127.3 940.4 127.3H899.2C898.6 127.3 898.1 127.8 898.1 128.4V146.9C898.1 147.5 898.6 148 899.2 148H933C933.9 148 934.6 148.7 934.6 149.6V163.7C934.5 164.5 933.8 165.2 933 165.2ZM979.4 204.8V174.9C979.4 174.1 980.1 173.4 980.9 173.3H994.9C1007.2 173.3 1017 170.4 1024.2 164.6C1031.4 158.8 1035 151.2 1035 141.7C1035 132.2 1031.4 124.5 1024.2 118.7C1016.9 112.9 1007.2 110 994.9 110H956.9C956 110 955.3 110.7 955.3 111.6V204.8C955.3 205.7 956 206.4 956.9 206.4H977.8C978.7 206.4 979.4 205.7 979.4 204.8ZM980.5 156.1C979.9 156.1 979.4 155.6 979.4 155V128.3C979.4 127.7 979.9 127.2 980.5 127.2H994.9C1000.2 127.2 1004.2 128.6 1006.9 131.3C1009.6 134 1011 137.5 1011 141.8C1011 146 1009.7 149.4 1006.9 152.1C1004.1 154.8 1000.1 156.1 994.9 156.1H980.5Z" fill="#0066B2"/>
<defs>
<linearGradient id="paint0_linear_527_74" x1="0" y1="86.6027" x2="287.387" y2="86.6027" gradientUnits="userSpaceOnUse">
<stop offset="0.0519075" stop-color="#0066B2"/>
<stop offset="0.9506" stop-color="#0080C6"/>
</linearGradient>
<linearGradient id="paint1_linear_527_74" x1="0" y1="223.221" x2="287.387" y2="223.221" gradientUnits="userSpaceOnUse">
<stop offset="0.0519075" stop-color="#F16623"/>
<stop offset="0.9506" stop-color="#F89C2A"/>
</linearGradient>
</defs>
</svg>
