<svg width="157" height="66" viewBox="0 0 157 66" fill="none" xmlns="http://www.w3.org/2000/svg">
<g clip-path="url(#clip0_1_60)">
<path d="M22.2897 35.5596C22.4868 35.3261 22.7321 35.1379 23.0089 35.0077C23.2856 34.8775 23.5873 34.8085 23.8932 34.8053C24.1992 34.802 24.5022 34.8647 24.7817 34.989C25.0611 35.1134 25.3103 35.2964 25.5123 35.5256C25.7085 35.8358 25.9537 36.1123 26.2385 36.3442C26.7531 36.7605 27.3826 37.0106 28.0432 37.0611C28.7038 37.1116 29.3642 36.9602 29.9364 36.627C30.5086 36.2939 30.9654 35.7947 31.246 35.1961C31.5267 34.5975 31.6178 33.9279 31.5073 33.2763C31.3967 32.6248 31.0898 32.0223 30.6273 31.5491C30.1649 31.0759 29.5689 30.7544 28.9186 30.6275C28.2684 30.5006 27.5949 30.5743 26.9877 30.8387C26.3805 31.1032 25.8685 31.5459 25.5199 32.1078C25.4858 32.1455 25.4556 32.1833 25.4215 32.2172C25.049 32.5839 24.5546 32.8018 24.0319 32.8296C23.5091 32.8574 22.9943 32.6932 22.5847 32.3681C22.4931 32.2955 22.4082 32.2147 22.3313 32.1267C21.9802 31.5494 21.4573 31.0958 20.8355 30.8291C20.2136 30.5623 19.5239 30.4957 18.8622 30.6385C18.2006 30.7813 17.6002 31.1264 17.1445 31.6257C16.6889 32.125 16.4008 32.7536 16.3204 33.4239C16.24 34.0943 16.3712 34.773 16.6959 35.3654C17.0205 35.9578 17.5224 36.4344 18.1316 36.7289C18.7407 37.0233 19.4268 37.1209 20.0942 37.008C20.7616 36.8951 21.377 36.5773 21.8547 36.099C22.0175 35.9342 22.1632 35.7534 22.2897 35.5596Z" fill="white"/>
<path d="M39.1933 35.6464H39.2159C38.9053 35.4682 38.6456 35.2136 38.4618 34.9069C38.2779 34.6001 38.176 34.2515 38.1658 33.8943C38.1555 33.537 38.2373 33.1832 38.4033 32.8664C38.5693 32.5497 38.8139 32.2807 39.1138 32.0852C39.4874 31.8163 39.7983 31.4702 40.0254 31.0704C40.376 30.4615 40.5191 29.7555 40.4331 29.0586C40.3471 28.3616 40.0367 27.7113 39.5486 27.2053C39.0604 26.6993 38.4208 26.3649 37.7259 26.2524C37.0309 26.1399 36.3181 26.2553 35.6945 26.5812C35.4068 26.6862 35.0997 26.728 34.7943 26.7038C34.4889 26.6796 34.1923 26.59 33.9248 26.441C33.6573 26.292 33.4252 26.0872 33.2443 25.8406C33.0634 25.5939 32.938 25.3113 32.8766 25.0119C32.8662 24.6448 32.792 24.2823 32.6573 23.9405C32.4172 23.326 31.9953 22.7988 31.4476 22.4292C30.8999 22.0596 30.2523 21.8651 29.591 21.8715C28.9298 21.8779 28.2861 22.085 27.7457 22.4651C27.2053 22.8453 26.7937 23.3805 26.5657 23.9996C26.3377 24.6187 26.3041 25.2924 26.4693 25.931C26.6346 26.5697 26.9909 27.143 27.4908 27.5748C27.9907 28.0065 28.6105 28.2763 29.2679 28.3481C29.9252 28.42 30.589 28.2906 31.1708 27.977L31.3107 27.9318C31.8165 27.7951 32.355 27.8492 32.8233 28.0838C33.2915 28.3183 33.6566 28.7169 33.8487 29.2031C33.8924 29.3115 33.9253 29.424 33.9471 29.5388C33.9596 30.0299 34.0835 30.5117 34.3095 30.9482C34.5356 31.3846 34.8578 31.7643 35.252 32.0588L35.2293 32.0814C35.353 32.1615 35.4683 32.2537 35.5735 32.3568C35.942 32.72 36.162 33.2069 36.1906 33.7228C36.2193 34.2387 36.0546 34.7468 35.7286 35.1484C35.6235 35.2759 35.5042 35.391 35.373 35.4917L35.2179 35.5973L35.1234 35.6577C34.5832 36.0835 34.1936 36.6704 34.0114 37.3326C33.9518 37.5547 33.9151 37.7822 33.9017 38.0117C33.8453 38.3119 33.7245 38.5964 33.5476 38.8458C33.3708 39.0952 33.142 39.3034 32.8769 39.4564C32.6118 39.6094 32.3167 39.7034 32.0118 39.7321C31.7069 39.7607 31.3993 39.7234 31.1103 39.6225C30.6805 39.3829 30.2017 39.2439 29.7101 39.216C29.2185 39.1881 28.727 39.2719 28.2727 39.4612C27.8184 39.6505 27.4132 39.9403 27.0876 40.3088C26.7621 40.6772 26.5248 41.1146 26.3936 41.5879C26.2786 41.9969 26.2462 42.4245 26.2981 42.8461C26.3501 43.2676 26.4854 43.6747 26.6962 44.0438C27.0432 44.6594 27.5821 45.1454 28.2312 45.4278C28.8803 45.7102 29.604 45.7736 30.2925 45.6084C30.981 45.4433 31.5967 45.0585 32.046 44.5126C32.4953 43.9668 32.7538 43.2895 32.7821 42.5838C32.7821 42.5386 32.7821 42.4895 32.8161 42.4405C32.9603 41.9399 33.2838 41.5097 33.7253 41.2315C34.1667 40.9533 34.6952 40.8465 35.2104 40.9315C35.3259 40.9516 35.4397 40.9806 35.5508 41.0183C36.1715 41.3841 36.8965 41.5338 37.6118 41.444C38.3271 41.3542 38.9922 41.0299 39.5027 40.5221C40.0131 40.0143 40.34 39.3517 40.4318 38.6385C40.5237 37.9253 40.3754 37.2019 40.0103 36.5819C39.8027 36.2192 39.525 35.9012 39.1933 35.6464Z" fill="white"/>
<path d="M54.9659 12.7931L35.0931 1.35508C33.5523 0.467365 31.8042 0 30.0247 0C28.2453 0 26.4972 0.467365 24.9563 1.35508L5.06842 12.7931C3.52766 13.6807 2.24819 14.9571 1.35854 16.494C0.468879 18.0309 0.000348695 19.7742 0 21.5488V35.6614L14.9708 23.8575H7.70097V20.1493L24.9828 10.1976C26.5132 9.3155 28.2496 8.85107 30.0172 8.85107C31.7847 8.85107 33.5211 9.3155 35.0515 10.1976L52.3333 20.1493V29.9311L60.0343 23.8575V21.5488C60.034 19.7742 59.5654 18.0309 58.6758 16.494C57.7861 14.9571 56.5066 13.6807 54.9659 12.7931Z" fill="white"/>
<path d="M45.0636 38.3851H52.3333V40.0488C52.3331 41.8113 51.8677 43.5427 50.984 45.0691C50.1003 46.5954 48.8294 47.8629 47.299 48.7442L30.0172 58.6958L12.7354 48.7442C11.2049 47.8629 9.93398 46.5954 9.05027 45.0691C8.16656 43.5427 7.70121 41.8113 7.70097 40.0488V33.2584L0 39.332V44.4399C6.80219e-05 46.2151 0.468446 47.959 1.3581 49.4966C2.24775 51.0341 3.52736 52.3111 5.06842 53.1994L24.9487 64.6449C26.4896 65.5326 28.2377 66 30.0172 66C31.7966 66 33.5447 65.5326 35.0856 64.6449L54.9659 53.1994C56.5069 52.3111 57.7866 51.0341 58.6762 49.4966C59.5659 47.959 60.0342 46.2151 60.0343 44.4399V26.5775L45.0636 38.3851Z" fill="#E2E2E2"/>
<path d="M74.4074 46.1525V20.4375C74.4074 20.1618 74.462 19.8888 74.5679 19.6341C74.6738 19.3794 74.8291 19.148 75.0248 18.9533C75.2204 18.7585 75.4527 18.6041 75.7083 18.499C75.9639 18.3939 76.2377 18.3401 76.5142 18.3406H86.6308C90.5633 18.3406 93.8518 19.4641 96.4962 21.711C97.7724 22.7581 98.7927 24.0813 99.4799 25.5801C100.167 27.079 100.503 28.7142 100.463 30.3619V35.6381C100.506 37.2874 100.171 38.9246 99.4831 40.4251C98.7958 41.9257 97.7742 43.2501 96.4962 44.2975C93.849 46.5388 90.5605 47.6594 86.6308 47.6594H75.9183C75.5176 47.6594 75.1333 47.5006 74.85 47.218C74.5666 46.9354 74.4074 46.5522 74.4074 46.1525ZM82.1577 23.5744V42.4256H86.6308C87.4505 42.4465 88.2648 42.2879 89.0164 41.9608C89.7679 41.6337 90.4384 41.1461 90.9804 40.5324C92.1154 39.2731 92.6828 37.6417 92.6828 35.6381V30.3152C92.7546 28.5408 92.1458 26.8059 90.9804 25.4634C90.4384 24.8497 89.7679 24.3621 89.0164 24.035C88.2648 23.7079 87.4505 23.5492 86.6308 23.5702L82.1577 23.5744Z" fill="white"/>
<path d="M124.616 35.116H112.848V42.4256H126.957V47.6594H106.609C106.41 47.6594 106.214 47.6204 106.03 47.5447C105.847 47.469 105.681 47.358 105.54 47.218C105.4 47.0781 105.289 46.912 105.213 46.7292C105.137 46.5463 105.098 46.3504 105.098 46.1525V20.4375C105.098 20.1618 105.152 19.8888 105.258 19.6341C105.364 19.3794 105.519 19.148 105.715 18.9533C105.911 18.7585 106.143 18.6041 106.399 18.499C106.654 18.3939 106.928 18.3401 107.204 18.3406H126.978V23.5744H112.848V29.8907H124.616V35.116Z" fill="white"/>
<path d="M139.065 37.612V45.5582C139.066 45.8343 139.011 46.1078 138.906 46.363C138.8 46.6182 138.645 46.85 138.449 47.0452C138.254 47.2405 138.021 47.3952 137.765 47.5006C137.509 47.606 137.235 47.66 136.958 47.6594H132.826C132.627 47.6594 132.431 47.6204 132.248 47.5447C132.064 47.469 131.898 47.358 131.757 47.218C131.617 47.0781 131.506 46.912 131.43 46.7292C131.354 46.5463 131.315 46.3504 131.315 46.1525V18.3406H144.083C148.055 18.3406 151.198 19.2263 153.51 20.9978C154.594 21.8128 155.474 22.8677 156.079 24.0794C156.685 25.2912 157 26.6266 157 27.9805C157 29.3345 156.685 30.6699 156.079 31.8816C155.474 33.0933 154.594 34.1482 153.51 34.9632C151.186 36.7291 148.044 37.612 144.083 37.612H139.065ZM139.065 32.3739H144.066C145.768 32.3739 147.045 31.9494 147.922 31.1556C148.357 30.7609 148.701 30.2768 148.93 29.7367C149.159 29.1966 149.268 28.6134 149.25 28.0272C149.27 27.4303 149.162 26.836 148.935 26.2835C148.708 25.7311 148.365 25.233 147.93 24.8224C147.054 23.9904 145.765 23.5744 144.066 23.5744H139.065V32.3739Z" fill="white"/>
</g>
<defs>
<clipPath id="clip0_1_60">
<rect width="157" height="66" fill="white"/>
</clipPath>
</defs>
</svg>
