<svg id="Layer_1" data-name="Layer 1" xmlns="http://www.w3.org/2000/svg" viewBox="0 0 437.07 195.77"><defs><style>.cls-1{fill:#3d3d3d;}.cls-2{fill:#5a5b5c;}</style></defs><path class="cls-1" d="M145.31,428.15a6.28,6.28,0,0,1,9.53-.1,9.83,9.83,0,0,0,2.15,2.44,9.64,9.64,0,1,0-2.13-12.57c-.1.11-.19.22-.3.32a6.32,6.32,0,0,1-8.38.46,5.69,5.69,0,0,1-.75-.72,9.63,9.63,0,1,0-1.4,11.77A9.46,9.46,0,0,0,145.31,428.15Z" transform="translate(-79.37 -322.67)"/><path class="cls-1" d="M195.31,428.42l.06-.07a6.19,6.19,0,0,1-.3-10.55v0a9.53,9.53,0,0,0,2.7-3,9.63,9.63,0,0,0-10.92-14.07,10,10,0,0,0-1.9.75,6.29,6.29,0,0,1-8.33-4.65,9.4,9.4,0,0,0-.65-3.18,9.63,9.63,0,1,0-4.39,12l.41-.14a6.35,6.35,0,0,1,7.51,3.78,7,7,0,0,1,.29,1,9.62,9.62,0,0,0,3.86,7.48l-.08.07a5.74,5.74,0,0,1,1,.81,6.19,6.19,0,0,1,.45,8.29,5.92,5.92,0,0,1-1,1c-.16.1-.31.21-.46.32l-.27.17,0,0a9.62,9.62,0,0,0-3.28,5,9.06,9.06,0,0,0-.32,2,6.29,6.29,0,0,1-8.26,4.77,9.63,9.63,0,1,0,5,8.83,3.15,3.15,0,0,1,.09-.42,6.34,6.34,0,0,1,7.08-4.52,6.8,6.8,0,0,1,1,.26,9.62,9.62,0,0,0,10.74-15.89Z" transform="translate(-79.37 -322.67)"/><path class="cls-1" d="M300.45,481.22V469.5h4.11a4.89,4.89,0,0,1,3.56,1.37,4.7,4.7,0,0,1,1.4,3.52v1.94a4.69,4.69,0,0,1-1.4,3.53,4.88,4.88,0,0,1-3.56,1.36Zm2.37-9.91v8.11h1.74a2.3,2.3,0,0,0,1.88-.87,3.36,3.36,0,0,0,.71-2.22v-1.95a3.31,3.31,0,0,0-.71-2.21,2.32,2.32,0,0,0-1.88-.86Z" transform="translate(-79.37 -322.67)"/><path class="cls-1" d="M317.39,478.69h-3.82l-.8,2.53h-2.46l4-11.72h2.42l3.95,11.72h-2.46Zm-3.24-1.84h2.66l-1.3-4.13h-.05Z" transform="translate(-79.37 -322.67)"/><path class="cls-1" d="M329.28,471.31h-3.37v9.91h-2.36v-9.91h-3.32V469.5h9Z" transform="translate(-79.37 -322.67)"/><path class="cls-1" d="M335.83,478.69H332l-.79,2.53h-2.47l4-11.72h2.42l4,11.72h-2.47Zm-3.24-1.84h2.67L334,472.72h-.05Z" transform="translate(-79.37 -322.67)"/><path class="cls-1" d="M351.09,476.07h-4.37v3.35h5.19v1.8h-7.55V469.5h7.54v1.81h-5.18v2.95h4.37Z" transform="translate(-79.37 -322.67)"/><path class="cls-1" d="M357.74,473.65,360,469.5h2.75l-3.5,5.81,3.7,5.91H360L357.77,477l-2.27,4.23h-2.76l3.58-5.91-3.49-5.81h2.73Z" transform="translate(-79.37 -322.67)"/><path class="cls-1" d="M372.74,477.34l0,.05a3.66,3.66,0,0,1-1.15,2.94,4.69,4.69,0,0,1-3.26,1.06,4.51,4.51,0,0,1-3.42-1.36,4.83,4.83,0,0,1-1.3-3.5V474.2a4.93,4.93,0,0,1,1.27-3.51,4.33,4.33,0,0,1,3.33-1.36,5,5,0,0,1,3.37,1.05,3.61,3.61,0,0,1,1.18,2.94l0,.05h-2.3a2.32,2.32,0,0,0-.54-1.68,2.29,2.29,0,0,0-1.69-.55,1.88,1.88,0,0,0-1.65.85,3.73,3.73,0,0,0-.6,2.19v2.35a3.61,3.61,0,0,0,.63,2.2,2,2,0,0,0,1.74.86,2.07,2.07,0,0,0,1.58-.56,2.36,2.36,0,0,0,.52-1.69Z" transform="translate(-79.37 -322.67)"/><path class="cls-1" d="M384,481.22h-2.36v-4.87h-4.8v4.87h-2.36V469.5h2.36v5h4.8v-5H384Z" transform="translate(-79.37 -322.67)"/><path class="cls-1" d="M392.43,478.69h-3.82l-.79,2.53h-2.47l4-11.72h2.42l3.95,11.72h-2.46Zm-3.24-1.84h2.66l-1.3-4.13h-.05Z" transform="translate(-79.37 -322.67)"/><path class="cls-1" d="M406.35,481.22H404l-4.75-7.91h-.05v7.9h-2.36V469.5h2.36l4.75,7.9H404V469.5h2.36Z" transform="translate(-79.37 -322.67)"/><path class="cls-1" d="M417.54,479.62a4.35,4.35,0,0,1-1.64,1.24,6.52,6.52,0,0,1-2.81.53,4.79,4.79,0,0,1-3.5-1.34,4.66,4.66,0,0,1-1.36-3.47v-2.44a4.73,4.73,0,0,1,1.32-3.47,4.57,4.57,0,0,1,3.39-1.34,4.84,4.84,0,0,1,3.31,1,3.31,3.31,0,0,1,1.11,2.71l0,.05h-2.22a1.89,1.89,0,0,0-.55-1.45,2.16,2.16,0,0,0-1.57-.52,2.13,2.13,0,0,0-1.75.83,3.36,3.36,0,0,0-.66,2.15v2.46a3.3,3.3,0,0,0,.68,2.17,2.22,2.22,0,0,0,1.82.84,4.3,4.3,0,0,0,1.33-.17,2.12,2.12,0,0,0,.75-.43v-2.27h-2.26v-1.63h4.63Z" transform="translate(-79.37 -322.67)"/><path class="cls-1" d="M426.28,476.07h-4.37v3.35h5.2v1.8h-7.56V469.5h7.54v1.81h-5.18v2.95h4.37Z" transform="translate(-79.37 -322.67)"/><path class="cls-1" d="M435.25,477v4.25h-2.36V469.5h4.51a4.62,4.62,0,0,1,3.19,1,3.72,3.72,0,0,1,0,5.42,4.66,4.66,0,0,1-3.19,1Zm0-1.81h2.15a2,2,0,0,0,1.49-.54,1.88,1.88,0,0,0,.51-1.36,2,2,0,0,0-.5-1.4,1.93,1.93,0,0,0-1.5-.55h-2.15Z" transform="translate(-79.37 -322.67)"/><path class="cls-1" d="M445.81,479.42h5.27v1.8h-7.63V469.5h2.36Z" transform="translate(-79.37 -322.67)"/><path class="cls-1" d="M459,478.69h-3.82l-.79,2.53h-2.47l4-11.72h2.42l4,11.72h-2.47Zm-3.24-1.84h2.66l-1.3-4.13H457Z" transform="translate(-79.37 -322.67)"/><path class="cls-1" d="M470.84,471.31h-3.37v9.91h-2.36v-9.91h-3.32V469.5h9Z" transform="translate(-79.37 -322.67)"/><path class="cls-1" d="M479,476.35H474.5v4.87h-2.37V469.5h7.71v1.81H474.5v3.23H479Z" transform="translate(-79.37 -322.67)"/><path class="cls-1" d="M490.88,476.41a4.9,4.9,0,0,1-1.37,3.57,4.74,4.74,0,0,1-3.56,1.41,4.68,4.68,0,0,1-3.54-1.41,4.92,4.92,0,0,1-1.36-3.57V474.3a5,5,0,0,1,1.35-3.56,4.69,4.69,0,0,1,3.53-1.41,4.76,4.76,0,0,1,3.57,1.41,4.89,4.89,0,0,1,1.38,3.56Zm-2.36-2.12a3.61,3.61,0,0,0-.68-2.25,2.31,2.31,0,0,0-1.91-.88,2.22,2.22,0,0,0-1.86.88,3.6,3.6,0,0,0-.67,2.25v2.12a3.67,3.67,0,0,0,.67,2.27,2.46,2.46,0,0,0,3.77,0,3.55,3.55,0,0,0,.68-2.27Z" transform="translate(-79.37 -322.67)"/><path class="cls-1" d="M495.11,476.53v4.69h-2.36V469.5h4.07a4.86,4.86,0,0,1,3.15.91,3.09,3.09,0,0,1,1.14,2.55,2.58,2.58,0,0,1-.48,1.56,3.44,3.44,0,0,1-1.4,1.06,2.54,2.54,0,0,1,1.5,1,3.28,3.28,0,0,1,.45,1.77v.86a4.24,4.24,0,0,0,.14,1,1.42,1.42,0,0,0,.45.79v.17h-2.43a1.28,1.28,0,0,1-.42-.85,7.72,7.72,0,0,1-.09-1.15v-.83a1.69,1.69,0,0,0-1.85-1.86Zm0-1.81h1.67a2.2,2.2,0,0,0,1.48-.42,1.51,1.51,0,0,0,.49-1.24,1.7,1.7,0,0,0-.49-1.28,2,2,0,0,0-1.44-.47h-1.71Z" transform="translate(-79.37 -322.67)"/><path class="cls-1" d="M509.39,478.14h.05l3-8.64h3.08v11.72h-2.36v-8h-.05l-2.91,8h-1.6l-2.92-8h0v8H503.3V469.5h3.1Z" transform="translate(-79.37 -322.67)"/><path class="cls-1" d="M299.37,449V381.24a5.54,5.54,0,0,1,5.54-5.54h26.6q15.5,0,25.93,8.89a28.62,28.62,0,0,1,10.43,22.8V421.3a28.58,28.58,0,0,1-10.43,22.82Q347,453,331.51,453H303.35A4,4,0,0,1,299.37,449Zm20.38-59.51v49.69h11.76a14.7,14.7,0,0,0,11.42-5q4.5-5,4.5-12.9v-14q0-7.8-4.5-12.79a14.7,14.7,0,0,0-11.42-5Z" transform="translate(-79.37 -322.67)"/><path class="cls-1" d="M431.36,419.92H400.43v19.27h37.08V453H384a4,4,0,0,1-4-4V381.24a5.54,5.54,0,0,1,5.53-5.54h52v13.8H400.43v16.62h30.93Z" transform="translate(-79.37 -322.67)"/><path class="cls-1" d="M469.35,426.5v20.95a5.54,5.54,0,0,1-5.54,5.54H452.94a4,4,0,0,1-4-4V375.7h33.52q15.61,0,24.78,7a23.06,23.06,0,0,1,0,36.81q-9.16,7-24.78,7Zm0-13.8h13.14q6.63,0,10.13-3.21a10.71,10.71,0,0,0,3.5-8.26,11.14,11.14,0,0,0-3.47-8.44q-3.47-3.29-10.16-3.29H469.35Z" transform="translate(-79.37 -322.67)"/><path class="cls-1" d="M242,360.64l-58.8-33.95a30,30,0,0,0-30,0l-58.8,33.95a30,30,0,0,0-15,26v41.85l44.28-35H102.16v-11l51.11-29.51a29.78,29.78,0,0,1,29.78,0l51.12,29.51v29l22.78-18v-6.84A30,30,0,0,0,242,360.64Z" transform="translate(-79.37 -322.67)"/><path class="cls-2" d="M212.67,436.53h21.5v4.93a29.79,29.79,0,0,1-14.89,25.79l-51.12,29.51-51.11-29.51a29.77,29.77,0,0,1-14.89-25.79V421.34l-22.79,18v15.16a30,30,0,0,0,15,26l58.8,33.95a30,30,0,0,0,30,0L242,480.48a30,30,0,0,0,15-26v-53Z" transform="translate(-79.37 -322.67)"/></svg>